<svg width="48" height="48" viewBox="0 0 48 48" fill="none" xmlns="http://www.w3.org/2000/svg">
<rect width="48" height="48" rx="12" fill="#FBBF24"/>
<path d="M36.9671 32.7129C36.8727 32.893 37.8479 29.3365 37.5805 27.6558C37.3132 25.9901 35.7875 25.705 34.8752 26.0051C33.5697 26.4253 31.7294 28.6612 30.8958 29.9067C30.0621 31.1673 27.9544 33.9884 26.067 33.7183C24.0379 33.4332 22.7954 31.1222 23.4402 28.4661C24.1638 25.4649 26.8849 21.4433 29.7475 20.2128C32.6102 18.9973 35.0325 19.3274 36.6211 20.843C38.0524 22.2086 40.4275 26.2002 36.9828 32.6979L36.9671 32.7129Z" fill="black"/>
<mask id="mask0_18_2" style="mask-type:luminance" maskUnits="userSpaceOnUse" x="23" y="19" width="16" height="15">
<g clip-path="url(#clip0_18_2)">
<rect width="15.493" height="14.2559" transform="translate(23.2668 19.4775)" fill="black"/>
<path d="M36.9669 32.7129C36.8725 32.893 37.8477 29.3365 37.5803 27.6558C37.3129 25.9901 35.7872 25.705 34.8749 26.0051C33.5694 26.4253 31.7291 28.6612 30.8955 29.9067C30.0619 31.1673 27.9542 33.9884 26.0667 33.7183C24.0377 33.4332 22.7951 31.1222 23.44 28.4661C24.1635 25.4649 26.8846 21.4433 29.7473 20.2128C32.61 18.9973 35.0322 19.3274 36.6208 20.843C38.0522 22.2086 40.4272 26.2002 36.9826 32.6979L36.9669 32.7129Z" fill="url(#paint0_linear_18_2)" style="mix-blend-mode:multiply"/>
</g>
</mask>
<g mask="url(#mask0_18_2)">
<path d="M36.9669 32.7129C36.8725 32.893 37.8477 29.3365 37.5803 27.6558C37.3129 25.9901 35.7872 25.705 34.8749 26.0051C33.5694 26.4253 31.7291 28.6612 30.8955 29.9067C30.0619 31.1673 27.9542 33.9884 26.0667 33.7183C24.0377 33.4332 22.7951 31.1222 23.44 28.4661C24.1635 25.4649 26.8846 21.4433 29.7473 20.2128C32.61 18.9973 35.0322 19.3274 36.6208 20.843C38.0522 22.2086 40.4272 26.2002 36.9826 32.6979L36.9669 32.7129Z" fill="black"/>
</g>
<path d="M23.7546 38.1451C20.5459 36.3894 19.1618 32.968 20.1212 28.5562C21.0178 24.4745 24.0535 19.6575 29.1496 17.9768C31.4618 17.2115 33.9312 17.7517 33.8683 17.7067C33.5695 17.5416 29.6529 15.3057 24.0849 16.5512C19.1303 17.6617 15.9688 21.0831 14.7262 25.81C14.5217 24.5645 14.4588 23.334 14.5689 22.1635C15.1037 16.4012 18.6742 7.84765 23.1726 6.19697C23.2355 6.18196 20.656 5.43166 17.9821 6.96228C7.85265 12.7397 6.64153 27.5658 12.5871 35.9692C14.852 39.1805 16.944 40.411 18.6742 41.0413C19.6336 41.4014 20.7189 41.7766 22.1031 41.9267C25.9724 42.3468 32.1381 41.0863 36.0861 34.8738C36.0861 34.8738 29.1339 41.0413 23.7703 38.1151L23.7546 38.1451Z" fill="black"/>
<defs>
<linearGradient id="paint0_linear_18_2" x1="24.95" y1="33.4782" x2="37.4223" y2="21.6999" gradientUnits="userSpaceOnUse">
<stop/>
<stop offset="0.09" stop-color="#060606"/>
<stop offset="0.22" stop-color="#191919"/>
<stop offset="0.37" stop-color="#383838"/>
<stop offset="0.54" stop-color="#636363"/>
<stop offset="0.72" stop-color="#9B9B9B"/>
<stop offset="0.91" stop-color="#DDDDDD"/>
<stop offset="1" stop-color="white"/>
</linearGradient>
<clipPath id="clip0_18_2">
<rect width="15.493" height="14.2559" fill="white" transform="translate(23.2668 19.4775)"/>
</clipPath>
</defs>
</svg>
